<svg width="32" height="32" viewBox="0 0 32 32" fill="none" xmlns="http://www.w3.org/2000/svg">
  <rect width="32" height="32" rx="6" fill="#FF5A5F"/>
  <path d="M16 6C13.5 6 11.5 8 11.5 10.5C11.5 13.5 16 20 16 20S20.5 13.5 20.5 10.5C20.5 8 18.5 6 16 6ZM16 12.5C15.2 12.5 14.5 11.8 14.5 11C14.5 10.2 15.2 9.5 16 9.5C16.8 9.5 17.5 10.2 17.5 11C17.5 11.8 16.8 12.5 16 12.5Z" fill="white"/>
  <path d="M8 22C8 20.9 8.9 20 10 20H22C23.1 20 24 20.9 24 22V24C24 25.1 23.1 26 22 26H10C8.9 26 8 25.1 8 24V22Z" fill="white"/>
</svg>